<svg width="39" height="39" viewBox="0 0 39 39" fill="none" xmlns="http://www.w3.org/2000/svg">
<path d="M19.5 6.5C20.3975 6.5 21.125 7.22754 21.125 8.125V17.875H30.875C31.7725 17.875 32.5 18.6025 32.5 19.5C32.5 20.3975 31.7725 21.125 30.875 21.125H21.125V30.875C21.125 31.7725 20.3975 32.5 19.5 32.5C18.6025 32.5 17.875 31.7725 17.875 30.875V21.125H8.125C7.22754 21.125 6.5 20.3975 6.5 19.5C6.5 18.6025 7.22754 17.875 8.125 17.875H17.875V8.125C17.875 7.22754 18.6025 6.5 19.5 6.5Z" fill="#E7E7E7"/>
</svg>
