<svg width="70" height="70" viewBox="0 0 70 70" fill="none" xmlns="http://www.w3.org/2000/svg">
<path fill-rule="evenodd" clip-rule="evenodd" d="M34.7849 69.0674C53.8387 69.0674 69.2849 53.6212 69.2849 34.5674C69.2849 15.5136 53.8387 0.0673828 34.7849 0.0673828C15.7311 0.0673828 0.284912 15.5136 0.284912 34.5674C0.284912 53.6212 15.7311 69.0674 34.7849 69.0674Z" fill="#F04037" fill-opacity="0.1"/>
<path d="M36.6315 21.9608L44.4982 25.4541C46.7649 26.4541 46.7649 28.1074 44.4982 29.1074L36.6315 32.6008C35.7382 33.0008 34.2715 33.0008 33.3782 32.6008L25.5115 29.1074C23.2449 28.1074 23.2449 26.4541 25.5115 25.4541L33.3782 21.9608C34.2715 21.5608 35.7382 21.5608 36.6315 21.9608Z" stroke="#F04037" stroke-width="2" stroke-linecap="round" stroke-linejoin="round"/>
<path d="M23.2849 32.734C23.2849 33.854 24.1249 35.1473 25.1516 35.6007L34.2049 39.6273C34.8982 39.934 35.6849 39.934 36.3649 39.6273L45.4182 35.6007C46.4449 35.1473 47.2849 33.854 47.2849 32.734" stroke="#F04037" stroke-width="2" stroke-linecap="round" stroke-linejoin="round"/>
<path d="M23.2849 39.4008C23.2849 40.6408 24.0182 41.7608 25.1516 42.2674L34.2049 46.2941C34.8982 46.6008 35.6849 46.6008 36.3649 46.2941L45.4182 42.2674C46.5516 41.7608 47.2849 40.6408 47.2849 39.4008" stroke="#F04037" stroke-width="2" stroke-linecap="round" stroke-linejoin="round"/>
</svg>
