<svg width="70" height="70" viewBox="0 0 70 70" fill="none" xmlns="http://www.w3.org/2000/svg">
<path fill-rule="evenodd" clip-rule="evenodd" d="M34.7849 69.0674C53.8387 69.0674 69.2849 53.6212 69.2849 34.5674C69.2849 15.5136 53.8387 0.0673828 34.7849 0.0673828C15.7311 0.0673828 0.284912 15.5136 0.284912 34.5674C0.284912 53.6212 15.7311 69.0674 34.7849 69.0674Z" fill="#5454D4" fill-opacity="0.1"/>
<path d="M31.285 35.4008C30.405 35.8408 29.6717 36.4941 29.125 37.3074C28.8184 37.7741 28.8184 38.3608 29.125 38.8274C29.6717 39.6408 30.405 40.2941 31.285 40.7341" stroke="#5454D4" stroke-width="2" stroke-linecap="round" stroke-linejoin="round"/>
<path d="M39.5649 35.4008C40.4449 35.8408 41.1783 36.4941 41.7249 37.3074C42.0316 37.7741 42.0316 38.3608 41.7249 38.8274C41.1783 39.6408 40.4449 40.2941 39.5649 40.7341" stroke="#5454D4" stroke-width="2" stroke-linecap="round" stroke-linejoin="round"/>
<path d="M31.285 47.4007H39.285C45.9517 47.4007 48.6183 44.734 48.6183 38.0673V30.0673C48.6183 23.4007 45.9517 20.734 39.285 20.734H31.285C24.6183 20.734 21.9517 23.4007 21.9517 30.0673V38.0673C21.9517 44.734 24.6183 47.4007 31.285 47.4007Z" stroke="#5454D4" stroke-width="2" stroke-linecap="round" stroke-linejoin="round"/>
<path d="M22.2583 28.7473L47.885 28.734" stroke="#5454D4" stroke-width="2" stroke-linecap="round" stroke-linejoin="round"/>
</svg>
