<svg width="70" height="70" viewBox="0 0 70 70" fill="none" xmlns="http://www.w3.org/2000/svg">
<path fill-rule="evenodd" clip-rule="evenodd" d="M34.7849 69.0674C53.8387 69.0674 69.2849 53.6212 69.2849 34.5674C69.2849 15.5136 53.8387 0.0673828 34.7849 0.0673828C15.7311 0.0673828 0.284912 15.5136 0.284912 34.5674C0.284912 53.6212 15.7311 69.0674 34.7849 69.0674Z" fill="#FEDC5A" fill-opacity="0.1"/>
<path d="M31.285 36.4006C30.405 36.8406 29.6717 37.494 29.125 38.3073C28.8184 38.774 28.8184 39.3606 29.125 39.8273C29.6717 40.6406 30.405 41.294 31.285 41.734" stroke="#FEDC5A" stroke-width="2" stroke-linecap="round" stroke-linejoin="round"/>
<path d="M39.5649 36.4006C40.4449 36.8406 41.1783 37.494 41.7249 38.3073C42.0316 38.774 42.0316 39.3606 41.7249 39.8273C41.1783 40.6406 40.4449 41.294 39.5649 41.734" stroke="#FEDC5A" stroke-width="2" stroke-linecap="round" stroke-linejoin="round"/>
<path d="M31.285 48.4008H39.285C45.9517 48.4008 48.6183 45.7341 48.6183 39.0675V31.0675C48.6183 24.4008 45.9517 21.7341 39.285 21.7341H31.285C24.6183 21.7341 21.9517 24.4008 21.9517 31.0675V39.0675C21.9517 45.7341 24.6183 48.4008 31.285 48.4008Z" stroke="#FEDC5A" stroke-width="2" stroke-linecap="round" stroke-linejoin="round"/>
<path d="M22.2583 29.7475L47.885 29.7341" stroke="#FEDC5A" stroke-width="2" stroke-linecap="round" stroke-linejoin="round"/>
</svg>
