<svg width="70" height="70" viewBox="0 0 70 70" fill="none" xmlns="http://www.w3.org/2000/svg">
<path fill-rule="evenodd" clip-rule="evenodd" d="M34.7849 69.0674C53.8387 69.0674 69.2849 53.6212 69.2849 34.5674C69.2849 15.5136 53.8387 0.0673828 34.7849 0.0673828C15.7311 0.0673828 0.284912 15.5136 0.284912 34.5674C0.284912 53.6212 15.7311 69.0674 34.7849 69.0674Z" fill="#FEDC5A" fill-opacity="0.1"/>
<path d="M42.4849 43.734H28.0849C26.0849 43.734 25.2849 42.8806 25.2849 40.7606V39.374C25.2849 37.254 26.0849 36.4006 28.0849 36.4006H42.4849C44.4849 36.4006 45.2849 37.254 45.2849 39.374V40.7606C45.2849 42.8806 44.4849 43.734 42.4849 43.734Z" stroke="#FEDC5A" stroke-width="2" stroke-linecap="round" stroke-linejoin="round"/>
<path d="M39.8183 32.4007H30.7517C28.7517 32.4007 27.9517 31.5474 27.9517 29.4274V28.0407C27.9517 25.9207 28.7517 25.0674 30.7517 25.0674H39.8183C41.8183 25.0674 42.6183 25.9207 42.6183 28.0407V29.4274C42.6183 31.5474 41.8183 32.4007 39.8183 32.4007Z" stroke="#FEDC5A" stroke-width="2" stroke-linecap="round" stroke-linejoin="round"/>
<path d="M35.2849 47.4009V44.2009" stroke="#FEDC5A" stroke-width="2" stroke-linecap="round" stroke-linejoin="round"/>
<path d="M35.2849 35.4008V32.7341" stroke="#FEDC5A" stroke-width="2" stroke-linecap="round" stroke-linejoin="round"/>
<path d="M35.2849 20.7341V24.3208" stroke="#FEDC5A" stroke-width="2" stroke-linecap="round" stroke-linejoin="round"/>
</svg>
