<svg width="70" height="70" viewBox="0 0 70 70" fill="none" xmlns="http://www.w3.org/2000/svg">
<path fill-rule="evenodd" clip-rule="evenodd" d="M34.7849 69.0674C53.8387 69.0674 69.2849 53.6212 69.2849 34.5674C69.2849 15.5136 53.8387 0.0673828 34.7849 0.0673828C15.7311 0.0673828 0.284912 15.5136 0.284912 34.5674C0.284912 53.6212 15.7311 69.0674 34.7849 69.0674Z" fill="#5454D4" fill-opacity="0.1"/>
<path d="M28.2981 47.4008H42.2715C45.9515 47.4008 47.4181 45.1475 47.5915 42.4008L48.2848 31.3875C48.4715 28.5075 46.1781 26.0675 43.2848 26.0675C42.4715 26.0675 41.7248 25.6008 41.3515 24.8808L40.3915 22.9475C39.7781 21.7341 38.1781 20.7341 36.8181 20.7341H33.7648C32.3915 20.7341 30.7915 21.7341 30.1781 22.9475L29.2181 24.8808C28.8448 25.6008 28.0981 26.0675 27.2848 26.0675C24.3915 26.0675 22.0981 28.5075 22.2848 31.3875L22.9781 42.4008C23.1381 45.1475 24.6181 47.4008 28.2981 47.4008Z" stroke="#5454D4" stroke-width="2" stroke-linecap="round" stroke-linejoin="round"/>
<path d="M33.2849 28.7341H37.2849" stroke="#5454D4" stroke-width="2" stroke-linecap="round" stroke-linejoin="round"/>
<path d="M35.285 42.0673C37.6717 42.0673 39.6183 40.1206 39.6183 37.734C39.6183 35.3473 37.6717 33.4006 35.285 33.4006C32.8983 33.4006 30.9517 35.3473 30.9517 37.734C30.9517 40.1206 32.8983 42.0673 35.285 42.0673Z" stroke="#5454D4" stroke-width="2" stroke-linecap="round" stroke-linejoin="round"/>
</svg>
