<svg width="70" height="70" viewBox="0 0 70 70" fill="none" xmlns="http://www.w3.org/2000/svg">
<path fill-rule="evenodd" clip-rule="evenodd" d="M34.7849 69.0674C53.8387 69.0674 69.2849 53.6212 69.2849 34.5674C69.2849 15.5136 53.8387 0.0673828 34.7849 0.0673828C15.7311 0.0673828 0.284912 15.5136 0.284912 34.5674C0.284912 53.6212 15.7311 69.0674 34.7849 69.0674Z" fill="#F04037" fill-opacity="0.1"/>
<path d="M48.6183 38.0675V30.0675C48.6183 23.4008 45.9517 20.7341 39.285 20.7341H31.285C24.6183 20.7341 21.9517 23.4008 21.9517 30.0675V38.0675C21.9517 44.7341 24.6183 47.4008 31.285 47.4008H39.285C45.9517 47.4008 48.6183 44.7341 48.6183 38.0675Z" stroke="#F04037" stroke-width="2" stroke-linecap="round" stroke-linejoin="round"/>
<path d="M22.645 27.5476H47.925" stroke="#F04037" stroke-width="2" stroke-linecap="round" stroke-linejoin="round"/>
<path d="M30.645 20.8809V27.3609" stroke="#F04037" stroke-width="2" stroke-linecap="round" stroke-linejoin="round"/>
<path d="M39.9248 20.8809V26.7609" stroke="#F04037" stroke-width="2" stroke-linecap="round" stroke-linejoin="round"/>
<path d="M32.2849 37.3343V35.7343C32.2849 33.681 33.7382 32.841 35.5116 33.8676L36.8982 34.6676L38.2849 35.4676C40.0582 36.4943 40.0582 38.1743 38.2849 39.201L36.8982 40.001L35.5116 40.8009C33.7382 41.8276 32.2849 40.9876 32.2849 38.9343V37.3343V37.3343Z" stroke="#F04037" stroke-width="2" stroke-miterlimit="10" stroke-linecap="round" stroke-linejoin="round"/>
</svg>
