<svg width="24" height="25" viewBox="0 0 24 25" fill="none" xmlns="http://www.w3.org/2000/svg">
<path d="M11.9946 3.18359C8.26833 3.18359 5.24512 6.06103 5.24512 9.60499C5.24512 13.6828 9.74478 20.145 11.397 22.377C11.4656 22.4712 11.5555 22.5479 11.6593 22.6007C11.7632 22.6536 11.8781 22.6812 11.9946 22.6812C12.1111 22.6812 12.226 22.6536 12.3299 22.6007C12.4337 22.5479 12.5236 22.4712 12.5922 22.377C14.2444 20.1459 18.7441 13.6861 18.7441 9.60499C18.7441 6.06103 15.7209 3.18359 11.9946 3.18359Z" stroke="#623CEA" stroke-width="1.49989" stroke-linecap="round" stroke-linejoin="round"/>
<path d="M11.992 12.1829C13.2346 12.1829 14.2418 11.1756 14.2418 9.93306C14.2418 8.69051 13.2346 7.68323 11.992 7.68323C10.7495 7.68323 9.74219 8.69051 9.74219 9.93306C9.74219 11.1756 10.7495 12.1829 11.992 12.1829Z" stroke="#623CEA" stroke-width="1.49989" stroke-linecap="round" stroke-linejoin="round"/>
</svg>
