<svg width="24" height="24" viewBox="0 0 24 24" fill="none" xmlns="http://www.w3.org/2000/svg">
<path d="M22 9.66999C21.9368 9.48708 21.822 9.32642 21.6693 9.20749C21.5167 9.08857 21.3328 9.01649 21.14 8.99999L15.45 8.16999L12.9 2.99999C12.8181 2.83092 12.6902 2.68833 12.5311 2.58857C12.3719 2.4888 12.1878 2.43588 12 2.43588C11.8121 2.43588 11.6281 2.4888 11.4689 2.58857C11.3097 2.68833 11.1819 2.83092 11.1 2.99999L8.54998 8.15999L2.85998 8.99999C2.6749 9.0263 2.5009 9.10396 2.35773 9.22415C2.21455 9.34435 2.10794 9.50227 2.04998 9.67999C1.99692 9.85367 1.99216 10.0385 2.03621 10.2147C2.08025 10.3909 2.17144 10.5517 2.29998 10.68L6.42998 14.68L5.42998 20.36C5.39428 20.5475 5.41297 20.7412 5.48385 20.9184C5.55473 21.0956 5.67483 21.2489 5.82998 21.36C5.98119 21.4681 6.15955 21.5319 6.34503 21.5443C6.5305 21.5566 6.71575 21.5171 6.87998 21.43L12 18.76L17.1 21.44C17.2403 21.5192 17.3988 21.5605 17.56 21.56C17.7718 21.5607 17.9784 21.4942 18.15 21.37C18.3051 21.2589 18.4252 21.1056 18.4961 20.9284C18.567 20.7512 18.5857 20.5575 18.55 20.37L17.55 14.69L21.68 10.69C21.8244 10.5677 21.9311 10.4069 21.9877 10.2263C22.0444 10.0458 22.0486 9.85287 22 9.66999ZM15.85 13.67C15.7327 13.7834 15.645 13.9238 15.5944 14.079C15.5439 14.2341 15.532 14.3992 15.56 14.56L16.28 18.75L12.52 16.75C12.3753 16.673 12.2139 16.6327 12.05 16.6327C11.8861 16.6327 11.7247 16.673 11.58 16.75L7.81998 18.75L8.53998 14.56C8.56791 14.3992 8.55609 14.2341 8.50554 14.079C8.45499 13.9238 8.36725 13.7834 8.24998 13.67L5.24998 10.67L9.45998 10.06C9.62198 10.0375 9.77598 9.97553 9.90848 9.87964C10.041 9.78376 10.1479 9.65683 10.22 9.50999L12 5.69999L13.88 9.51999C13.952 9.66683 14.059 9.79376 14.1915 9.88964C14.324 9.98553 14.478 10.0475 14.64 10.07L18.85 10.68L15.85 13.67Z" fill="#623CEA"/>
</svg>
